<svg id="bx-search-alt" xmlns="http://www.w3.org/2000/svg" width="27.293" height="27.295" viewBox="0 0 27.293 27.295">
  <path id="Path_6" data-name="Path 6" d="M13.672,25.344a11.6,11.6,0,0,0,7.145-2.463l6.414,6.414,2.063-2.063-6.414-6.414a11.658,11.658,0,1,0-9.208,4.526Zm0-20.426a8.754,8.754,0,1,1-8.754,8.754A8.763,8.763,0,0,1,13.672,4.918Z" transform="translate(-2 -2)" fill="#fff"/>
  <path id="Path_7" data-name="Path 7" d="M13.357,9.755a2.9,2.9,0,0,1,.858,2.063h2.918A5.8,5.8,0,0,0,15.42,7.692a5.965,5.965,0,0,0-8.246,0l2.06,2.066A2.982,2.982,0,0,1,13.357,9.755Z" transform="translate(0.375 -0.147)" fill="#fff"/>
</svg>
